<svg xmlns="http://www.w3.org/2000/svg" viewBox="0 0 138.17 122.37"><defs><style>.cls-1{fill:#fff;}</style></defs><g id="Ebene_2" data-name="Ebene 2"><g id="Ebene_1-2" data-name="Ebene 1"><path class="cls-1" d="M100.49,11a26.54,26.54,0,0,0-18.87,7.81l-4.76,4.77-7.78,7.77-7.77-7.77-4.77-4.77A26.68,26.68,0,0,0,18.81,56.54l50.27,50.27,50.27-50.27A26.68,26.68,0,0,0,100.49,11Z"/><path d="M127.13,11a37.67,37.67,0,0,0-53.29,0L69.08,15.8,64.32,11A37.66,37.66,0,0,0,11,11h0a37.66,37.66,0,0,0,0,53.28l58,58.05,58.05-58.05a37.66,37.66,0,0,0,0-53.28Zm-7.78,45.5L69.08,106.81,18.81,56.54A26.68,26.68,0,0,1,56.54,18.81l4.77,4.77,7.77,7.77,7.78-7.77,4.76-4.77a26.68,26.68,0,1,1,37.73,37.73Z"/></g></g></svg>