<svg xmlns="http://www.w3.org/2000/svg" viewBox="0 0 343.4 579.98"><defs><style>.cls-1{fill:#fff;}.cls-2{fill:#378c61;}</style></defs><g id="Ebene_2" data-name="Ebene 2"><g id="Ebene_1-2" data-name="Ebene 1"><g id="Layer_2" data-name="Layer 2"><g id="Layer_1-2" data-name="Layer 1-2"><path class="cls-1" d="M123.31,6.92S143.49.05,162,.28,283.57,96.5,283.57,96.5l-11,187-89,180-36,54-80-289,30-186Z"/><path class="cls-2" d="M343.4,171.69A171.54,171.54,0,0,1,336.22,221a.87.87,0,0,1-.07.17c-1.57,4.65-3.18,9.3-4.83,13.91v.11c0,.06-.05.11-.07.17A901.26,901.26,0,0,1,152.43,534.79h0q-3,3.36-6.1,6.71Q128.21,561.3,108.88,580a361.39,361.39,0,0,0,8-75.84A358.7,358.7,0,0,0,41,283.07h0q-3.27-4.2-6.61-8.27l-.11-.13A171.72,171.72,0,0,1,123.31,7q13.35,39.74,23.39,80.91h0a87.49,87.49,0,0,0,25,171.32h1.09q2,32,2.06,64.62,0,9.79-.18,19.55a1001.06,1001.06,0,0,1-13.56,146.13A988.11,988.11,0,0,0,186.93,342.7q4.24-42.4,4.85-85.83A87.49,87.49,0,0,0,179.31,84.54Q172.46,41.78,162,.29h0c3.2-.19,6.42-.29,9.68-.29A171.69,171.69,0,0,1,343.4,171.69Z"/></g></g></g></g></svg>