<svg xmlns="http://www.w3.org/2000/svg" viewBox="0 0 343.37 580"><defs><style>.cls-1{fill:#fff;}</style></defs><g id="Layer_2" data-name="Layer 2"><g id="Layer_1-2" data-name="Layer 1"><path class="cls-1" d="M343.37,171.69A171.55,171.55,0,0,1,336.19,221a.87.87,0,0,1-.07.17c-1.57,4.65-3.18,9.3-4.83,13.91l0,.11c0,.06-.05.11-.07.17A901.24,901.24,0,0,1,152.4,534.79v0q-3,3.36-6.1,6.71-18.12,19.8-37.45,38.48a360.92,360.92,0,0,0,8-75.84A358.66,358.66,0,0,0,41,283.07s0,0,0,0q-3.26-4.2-6.61-8.27l-.11-.13a171.72,171.72,0,0,1,89-267.72q13.36,39.73,23.39,80.91v0a87.49,87.49,0,0,0,25,171.32h1.09q2.05,32,2.06,64.62,0,9.8-.18,19.55a1000.16,1000.16,0,0,1-13.56,146.13,987.09,987.09,0,0,0,25.82-146.78q4.25-42.4,4.85-85.83A87.49,87.49,0,0,0,179.28,84.54Q172.43,41.78,162,.29h0Q166.8,0,171.68,0A171.69,171.69,0,0,1,343.37,171.69Z"/></g></g></svg>