<svg xmlns="http://www.w3.org/2000/svg" viewBox="0 0 2414.97 576.38"><defs><style>.cls-1{fill:#333;}.cls-2{fill:#7aaf6b;}</style></defs><g id="Layer_2" data-name="Layer 2"><g id="Layer_1-2" data-name="Layer 1"><path class="cls-1" d="M519.37,397.11a45.23,45.23,0,0,1-24.24-6.65q-10.75-6.65-10.76-19.95A73.7,73.7,0,0,1,486,355.2q1.57-7.44,3.67-17.07,10-47.42,47.25-137,13.47-32.73,24-61.43a7.61,7.61,0,0,1,2.1-3q-39.56,7.69-74.55,36.4A128.77,128.77,0,0,0,461.45,203q-11,17-12.6,28.88a150.5,150.5,0,0,0-1.58,16.27,72.77,72.77,0,0,0,7,30.28,7.28,7.28,0,0,1,.7,3,5.89,5.89,0,0,1-.7,3,6.93,6.93,0,0,1-6.12,3.67,6.45,6.45,0,0,1-4.38-1.92q-24.86-21.87-24.85-52.68,0-22,12.25-42.52,27-44.44,88.38-63a182.06,182.06,0,0,1,53.37-8.4q25.91,0,43.75,7.7T645,148q10.5,13,13.21,25.63a105.42,105.42,0,0,1,2.72,21.7q0,25.38-13.83,50.58a118.81,118.81,0,0,1-24.5,30.62q-33.07,29.76-82.07,31.5-5.25,16.11-10.33,37.89t-5.07,34c0,2.33.17,6.07.52,11.2a5.68,5.68,0,0,1-1,3.5A6.32,6.32,0,0,1,519.37,397.11ZM547.2,288.26q32.55-8.06,57-41.83,16.28-22.4,16.27-53.9a62.91,62.91,0,0,0-12.07-37.27A46.87,46.87,0,0,0,592.35,141q-9.81-5.34-18.73-5.34h-3.85q25.9,10.16,25.9,22.22a15.45,15.45,0,0,1-1,5.43L581,197.61Q563.12,242.58,547.2,288.26Z"/><path class="cls-1" d="M653.85,395.88q-14.36,0-20.65-14.52-3.86-8.75-3.85-22.58a120.57,120.57,0,0,1,4.9-33.95q14-48.12,71.57-199.32c.93-2.68,3.21-4,6.83-4a21.88,21.88,0,0,1,4.55.53,40.4,40.4,0,0,1,16.1,7.17q7,5.25,7,10.5,0,1.41-3.5,10.68-50.92,136-63.18,178.15a114.62,114.62,0,0,0-4.37,31.5c0,5.37,1.1,8.05,3.32,8.05q2.45,0,12.6-11.38,8.75-9.8,21.35-26.6,18.56-24.68,32-43.05,2.63-3.5,6-3.5a5.84,5.84,0,0,1,4.46,2,7.13,7.13,0,0,1,1.84,5,7.42,7.42,0,0,1-1.58,4.55q-9.27,13-15,20.83t-12.6,16.71q-6.92,8.83-15.31,19.86-5.25,7-9.8,12.6-14.53,18-26.25,25.73A30,30,0,0,1,653.85,395.88Z"/><path class="cls-1" d="M830,395.88q-13.49,0-19.78-14.87-3.86-9.11-3.85-22.05a118.42,118.42,0,0,1,5.08-34.13l3.85-13.3-42.88,62.13q-15.57,22.57-32.55,22.57-13.83,0-20.47-14.87-5.25-11.55-5.25-28.18,0-46.2,22.4-89.77,15.57-30.27,38-44.28a49.37,49.37,0,0,1,26.6-7.52q11.37,0,18.38,5.51a39.92,39.92,0,0,1,11.2,14.18,96.6,96.6,0,0,1,6.65,18.28l12.42-31.5c1-2.56,3.44-3.85,7.18-3.85q10,0,19.77,7,6.82,4.91,6.83,10.15,0,1.41-5.43,14.7-33.26,82.08-33.25,114.45,0,10,3.33,10,4.73,0,50.92-60.9L915.72,287q2.63-3.5,5.95-3.5a5.82,5.82,0,0,1,4.46,2,7.08,7.08,0,0,1,1.84,5,7.42,7.42,0,0,1-1.58,4.55q-10,13.83-16.1,22.23Q855.69,395.88,830,395.88Zm-74.38-22.75q2.1,0,39-54.07l34-50.05q-3.15-13.47-5.08-20.13-5.6-20.12-12.07-20.12-7.18,0-21.18,16.27-37.8,44.46-37.8,118Q752.44,373.14,755.59,373.13Z"/><path class="cls-1" d="M1008.89,267.08q3.68-13.81,3.68-21.7,0-8.74-3.15-8.75-6.48,0-17.33,12.78-34.47,40.25-76.65,125.47l-9.27,17.85c-1,1.87-3.39,2.8-7,2.8a31.58,31.58,0,0,1-13.48-3.5q-11.9-5.77-11.9-17.32a23.39,23.39,0,0,1,1.75-8.23l52.68-148.22q1.21-3.67,4.37-3.85c2.1-.12,3.27-.18,3.5-.18a31,31,0,0,1,12.6,3,21.22,21.22,0,0,1,9.71,7.87,17.68,17.68,0,0,1,3.07,9.28,24,24,0,0,1-1.58,8L938,304.18l4.2-7.35a360,360,0,0,1,39.9-56.17q23.26-27.12,42-27.13,10,0,16.45,5.95,11,10.16,11,31.85,0,16.46-15.31,54.69T1021,368.76q0,7.88,3.67,7.87,6.64,0,29.58-29.4,5.41-7.17,12.25-16.8t15.22-20.82q6.82-9.27,16.8-22.58,2.63-3.5,6-3.5a5.82,5.82,0,0,1,4.46,2,7.08,7.08,0,0,1,1.84,5,7.41,7.41,0,0,1-1.57,4.55q-9.11,12.6-15.05,20.65-4.56,6.48-14,19.6t-23.63,31.5q-23.45,30.63-42.35,30.63-13.65,0-22.75-8.93t-9.1-32.72a59.16,59.16,0,0,1,2.28-15.4,307.31,307.31,0,0,1,11.81-35.88A364.69,364.69,0,0,0,1008.89,267.08Z"/><path class="cls-1" d="M1091.74,396.23q-22.92,0-22.93-30.45,0-27.64,16.45-75.42,9.29-27.3,23.28-63.35h-20.83q-8.57,0-8.57-4.9,0-8.4,8.57-8.4h25.9q7.53-19.25,16.28-40.78,1.74-4.2,7.35-4.2a32.44,32.44,0,0,1,12.42,3,38.24,38.24,0,0,1,8,4.37q6.82,5.25,6.83,10.5,0,2.1-9.63,27.13h21.18q8.57,0,8.57,4.9,0,8.4-8.57,8.4h-26.43q-18.9,48.83-30.8,83.82T1107,360.36q0,7.69,5.08,7.7,6.3,0,24.15-24.33l42-56.7q2.63-3.5,6-3.5a5.82,5.82,0,0,1,4.46,2,7.08,7.08,0,0,1,1.84,5,7.42,7.42,0,0,1-1.58,4.55q-16.27,22.57-36.75,50.05-18.72,25.2-34.82,39.73Q1104.86,396.23,1091.74,396.23Z"/><path class="cls-1" d="M1167.59,502.28q-18.73,0-30.8-8.4-13.3-9.09-13.3-28.87,0-17.16,12.25-29.93,10.32-10.84,32.72-19.6,14.18-5.42,28.7-10.32,10.32-3.33,18.73-6.3,8.92-21.71,17.15-43.58-5.08,8.06-8.93,13.3-20,27.3-40.77,27.3-12.43,0-20.13-7.87-12.95-13.12-13-36.58a92.42,92.42,0,0,1,4-26.6q12.42-42.52,28.7-83.82l9.27-23.1q1.58-4.2,8.58-4.2a31.85,31.85,0,0,1,12.51,2.89q6.74,2.88,9.62,7.61a17.19,17.19,0,0,1,2.89,8.92,22.06,22.06,0,0,1-1.57,7.7A913.72,913.72,0,0,0,1193,331.31a102.89,102.89,0,0,0-4.37,28.35q0,16.09,7.52,16.1,9.11,0,28.53-32,21-34.82,31.67-60,6.48-15.4,13.48-36.23l9.8-29.4q1.22-3.68,7.35-3.67,10.5,0,20.65,7.7,7.17,5.59,7.17,11.2,0,3.85-11,36.57-20,59.33-36.4,103.08,26.94-18.37,45.15-41.3,11.71-14.52,34-44.63,2.63-3.5,6-3.5a5.84,5.84,0,0,1,4.46,2,7.13,7.13,0,0,1,1.84,5,7.42,7.42,0,0,1-1.58,4.55q-15.22,21.18-23.27,32a242.75,242.75,0,0,1-74.9,66.85q-21.7,53.37-36.58,76.65a66.94,66.94,0,0,1-38.5,29.05A56.83,56.83,0,0,1,1167.59,502.28ZM1155.16,486q6,0,11.9-4.73,17-13.12,31-43l10.67-22.75q-32.2,11.2-35.35,12.43-18.9,7.17-27.12,16.27-7.71,8.58-7.7,21.18,0,11.89,6.82,17.15A16.29,16.29,0,0,0,1155.16,486Z"/><path class="cls-1" d="M1495.86,401a94.45,94.45,0,0,1-31-4.9A56.84,56.84,0,0,1,1441,380.48q-9.71-10.67-13.38-28l-.7-.17q-17.69-3.85-26.17-18.29t-8.48-35.61q0-21.18,7.61-45.41A218.59,218.59,0,0,1,1422,204.87a207.09,207.09,0,0,1,35.26-43.4,172.7,172.7,0,0,1,47-31.5,135.7,135.7,0,0,1,57-12q22.05,0,36,9.63a59,59,0,0,1,20.91,26.07q7,16.45,7.44,28.44t.44,15q0,40.08-17.15,85.93-18.56,49.17-48.3,82.25Q1528.41,401,1495.86,401Zm-.53-22q18.9,0,37.28-18.29T1566.12,315a308,308,0,0,0,24.59-57.84q9.45-30.45,10.06-45.5t.61-17.85q0-23.28-8.92-38.5-10-17.32-33.6-17.5-25,0-52.5,18.2t-49.62,46.55q-22.14,28.35-29.13,51t-7,36a74.59,74.59,0,0,0,5.77,29q3-30.45,16.1-64.57t33.43-56.18a12.51,12.51,0,0,1,9.45-3.85,21.88,21.88,0,0,1,3.85.35q8.57,1.58,11.28,6.92c1.81,3.56,2.72,6.44,2.72,8.66q0,6.48-5.25,15.57A247.12,247.12,0,0,0,1475.82,275a196.19,196.19,0,0,0-10.06,53.2q27.65-20.3,48.82-60,2.63-4.89,4.64-5.16c1.34-.17,2.19-.26,2.54-.26a5.25,5.25,0,0,1,4.37,2,7.58,7.58,0,0,1,1.58,4.81,13.94,13.94,0,0,1-.35,3,238.57,238.57,0,0,1-11.64,32.37,137.21,137.21,0,0,1-19.16,31.77q-11.55,14.27-27.48,19.16a38.26,38.26,0,0,0,9.28,16.62Q1484.3,378.91,1495.33,378.91Z"/><path class="cls-1" d="M1798.07,328.33q-17.07,27-37.19,44.8a121.72,121.72,0,0,1-25.2,17.68q-18.9,9.79-43.58,9.8-45.49,0-51.62-50.05l-51.28,142.8c-1,2.91-3.2,4.37-6.47,4.37a15.22,15.22,0,0,1-4.73-.87,36.46,36.46,0,0,1-15.57-8.93q-6.48-6.3-6.48-12.25,0-2.79,91.35-257.6,1.58-4.37,6.83-4.37a21.83,21.83,0,0,1,4.55.52,37.84,37.84,0,0,1,15.92,8.23q6.83,6,6.83,11.37,0,1.57-3.33,11,25.2-31.32,52.15-31.33a30.91,30.91,0,0,1,19.08,6.48q10,7.69,12.77,18.9a80.54,80.54,0,0,1,2.45,18.9q0,51.63-31.85,99.92a108.9,108.9,0,0,1-26.77,28.35q24.49-2.44,47.42-23.62,15.06-14,32.47-40.78T1809,287c1.75-2.33,3.74-3.5,6-3.5a5.86,5.86,0,0,1,4.47,2,7.12,7.12,0,0,1,1.83,5,7.41,7.41,0,0,1-1.57,4.55Q1815.12,301.38,1798.07,328.33Zm-129.94,47.6q5.59,0,12.25-6.47,16.62-16.62,31.5-49.53Q1724,293,1724,261.31q0-27-11.37-26.95-5.77,0-13.3,5.95-11.21,9.1-22.31,26.6a169.79,169.79,0,0,0-17.59,36.57q-5.78,17.32-5.78,32,0,18.72,4.2,29.57T1668.13,375.93Z"/><path class="cls-1" d="M1802.25,396.23q-22.92,0-22.92-30.45,0-27.64,16.45-75.42,9.27-27.3,23.27-63.35h-20.82q-8.58,0-8.58-4.9,0-8.4,8.58-8.4h25.9q7.51-19.25,16.27-40.78,1.75-4.2,7.35-4.2a32.48,32.48,0,0,1,12.43,3,38.48,38.48,0,0,1,8,4.37q6.82,5.25,6.82,10.5,0,2.1-9.62,27.13h21.17q8.58,0,8.58,4.9,0,8.4-8.58,8.4h-26.42q-18.9,48.83-30.8,83.82t-11.9,49.53q0,7.69,5.07,7.7,6.3,0,24.15-24.33l42-56.7c1.75-2.33,3.74-3.5,6-3.5a5.86,5.86,0,0,1,4.47,2,7.12,7.12,0,0,1,1.83,5,7.41,7.41,0,0,1-1.57,4.55q-16.28,22.57-36.75,50.05-18.74,25.2-34.83,39.73Q1815.38,396.23,1802.25,396.23Z"/><path class="cls-1" d="M1884.23,395.36q-11.55,0-17.15-8.23-7.35-10.5-7.35-28.17,0-32.2,34.3-117.95l9.27-22.93q1.76-4.2,7.35-4.2a18.85,18.85,0,0,1,4.2.53,39.67,39.67,0,0,1,16.1,7.26q7,5.34,7,10.41,0,1.41-5.07,14-33.08,82.26-33.08,115.15,0,6.82,3.15,6.83,2.63,0,11.2-9.45,10.68-11.89,19.78-24.15,22.21-29.58,35.35-47.43,2.63-3.5,6-3.5a5.84,5.84,0,0,1,4.46,2,7.13,7.13,0,0,1,1.84,5,7.42,7.42,0,0,1-1.58,4.55q-25.2,35-52.32,70.18-6.83,8.92-19.43,20.47A35.57,35.57,0,0,1,1884.23,395.36Zm52.15-187.25a21.51,21.51,0,0,1-21.53-21.53,21,21,0,0,1,6.3-15.31,21.33,21.33,0,0,1,30.45,0,21,21,0,0,1,6.3,15.31,21.51,21.51,0,0,1-21.52,21.53Z"/><path class="cls-1" d="M1991.92,397.46q-19.77,0-32.9-13.83-13.82-14.7-13.82-42.52,0-27.64,13-58.28,17.32-41.29,46.55-60.37a56.72,56.72,0,0,1,31.32-9.63q16.11,0,28.7,12.78,15.59,15.93,15.58,43.75,0,43.23-25.38,85.22a19.21,19.21,0,0,0,6.48-1.4q15.57-7,31.32-27.12,7.88-10,29.23-39,2.63-3.5,6-3.5a5.82,5.82,0,0,1,4.46,2,7.08,7.08,0,0,1,1.84,5,7.42,7.42,0,0,1-1.58,4.55l-9.1,12.6a479.4,479.4,0,0,1-32,40.25A74.41,74.41,0,0,1,2066,365.78a25.12,25.12,0,0,1-10,2.1,27.7,27.7,0,0,1-9.1-1.57q-3.15,4-6.3,7.7Q2019.57,397.28,1991.92,397.46Zm10.15-18.9q14.54,0,33.25-28.18a50,50,0,0,1-.35-5.77q0-22.92,25-55.48a116.49,116.49,0,0,0,2.1-19.95,75.23,75.23,0,0,0-3.68-23.27q-4.89-15.4-14.52-15.4-10.86,0-20.91,10.76t-18.12,27.56a206.36,206.36,0,0,0-13.12,35.7q-6.48,24.15-6.48,42.53Q1985.27,378.56,2002.07,378.56Z"/><path class="cls-1" d="M2215.12,267.08q3.68-13.81,3.68-21.7,0-8.74-3.15-8.75-6.48,0-17.33,12.78-34.47,40.25-76.65,125.47l-9.27,17.85q-1.58,2.81-7,2.8a31.62,31.62,0,0,1-13.48-3.5q-11.9-5.77-11.9-17.32a23.39,23.39,0,0,1,1.75-8.23l52.68-148.22q1.22-3.67,4.37-3.85c2.1-.12,3.27-.18,3.5-.18a31,31,0,0,1,12.6,3,21.22,21.22,0,0,1,9.71,7.87,17.68,17.68,0,0,1,3.07,9.28,24,24,0,0,1-1.58,8l-21.87,61.77,4.2-7.35a360,360,0,0,1,39.9-56.17q23.27-27.12,42-27.13,10,0,16.45,5.95,11,10.16,11,31.85,0,16.46-15.31,54.69t-15.31,62.74q0,7.88,3.67,7.87,6.65,0,29.58-29.4,5.41-7.17,12.25-16.8t15.22-20.82q6.82-9.27,16.8-22.58,2.63-3.5,6-3.5a5.82,5.82,0,0,1,4.46,2,7.08,7.08,0,0,1,1.84,5,7.41,7.41,0,0,1-1.57,4.55q-9.11,12.6-15.05,20.65-4.56,6.48-14,19.6t-23.63,31.5q-23.44,30.63-42.35,30.63-13.65,0-22.75-8.93t-9.1-32.72a59.16,59.16,0,0,1,2.28-15.4,307.31,307.31,0,0,1,11.81-35.88A364.69,364.69,0,0,0,2215.12,267.08Z"/><path class="cls-1" d="M2321.17,396.58c-5.44.41-25.69,1.13-41.12-13.73,0,0-14.7-14.39-14.7-38.94q0-7.35,7.17-7.35,6.66,0,6.65,8.05,0,18.72,13.65,28.87,7.35,5.61,14.35,5.6,10.32,0,19.43-9.62,15.57-16.62,15.57-43.23a125.83,125.83,0,0,0-7.7-42.17,101.64,101.64,0,0,1-3-10.33q-8.4,10.86-16.1,21.35c-1.75,2.34-3.74,3.5-6,3.5a6,6,0,0,1-4.47-1.92,7.07,7.07,0,0,1-1.83-5.08,7.43,7.43,0,0,1,1.57-4.55q11.37-15.75,24.5-33.6,1.92-20.3,19.34-36.83t36.49-16.54q13.65,0,22.75,8.75a24,24,0,0,1,7.17,17.67q0,6.14-6.3,6.13t-6.3-6.13q0-8.56-8.57-8.57-13.31,0-21.79,13.74t-8.49,27.56q0,12.78,7.35,31.24a97.71,97.71,0,0,1,7.35,36.31,81,81,0,0,1-1.3,14.56,78.32,78.32,0,0,1-6.4,20.09,71.18,71.18,0,0,1-5.42,9.27C2363,373.73,2348,394.56,2321.17,396.58Z"/><path class="cls-2" d="M341.23,170.62a170.27,170.27,0,0,1-7.14,49,1,1,0,0,1-.06.16q-2.34,6.93-4.8,13.83s0,.07-.05.1-.05.11-.06.17A895.92,895.92,0,0,1,151.45,531.46h0q-3,3.35-6.06,6.67-18,19.68-37.22,38.24a358.52,358.52,0,0,0,8-75.37A356.43,356.43,0,0,0,40.78,281.3v0q-3.24-4.17-6.58-8.21a1.34,1.34,0,0,0-.11-.14,170.65,170.65,0,0,1,88.44-266q13.28,39.48,23.24,80.4v0a86.94,86.94,0,0,0,24.85,170.25h1.08q2,31.83,2.05,64.22,0,9.74-.18,19.42a994.89,994.89,0,0,1-13.47,145.23,981.55,981.55,0,0,0,25.66-145.87q4.22-42.14,4.81-85.29A86.94,86.94,0,0,0,178.16,84Q171.35,41.52,161,.29h0Q165.76,0,170.61,0A170.62,170.62,0,0,1,341.23,170.62Z"/></g></g></svg>