<?xml version="1.0" encoding="utf-8"?>
<!-- Generator: Adobe Illustrator 24.3.0, SVG Export Plug-In . SVG Version: 6.00 Build 0)  -->
<svg version="1.1" id="Ebene_1" xmlns="http://www.w3.org/2000/svg" xmlns:xlink="http://www.w3.org/1999/xlink" x="0px" y="0px"
	 viewBox="0 0 117 83.4" style="enable-background:new 0 0 117 83.4;" xml:space="preserve">
<style type="text/css">
	.st0{fill:#FFFFFF;}
</style>
<path class="st0" d="M114.6,52.7L86.8,24.9L64.3,2.4c-3.2-3.2-8.4-3.2-11.6,0c0,0,0,0,0,0L30.2,24.9L2.4,52.7
	c-3.2,3.2-3.2,8.4,0,11.6c0,0,0,0,0,0L19.1,81c3.2,3.2,8.4,3.2,11.6,0c0,0,0,0,0,0l27.8-27.8L86.3,81c3.2,3.2,8.4,3.2,11.6,0
	c0,0,0,0,0,0l16.7-16.7C117.7,61.1,117.6,56,114.6,52.7z"/>
</svg>
